<svg xmlns="http://www.w3.org/2000/svg" viewBox="0 0 3309.83 1299.23"><defs><style>.cls-1{font-size:128.95px;fill:#231f20;font-family:Avenir-Heavy, Avenir;font-weight:800;letter-spacing:0.06em;}.cls-2{letter-spacing:0.02em;}.cls-3{letter-spacing:0.06em;}.cls-4{fill:#12b5c8;}</style></defs><title>SVGNBLCD_Stationary Kit</title><g id="Layer_3" data-name="Layer 3"><text class="cls-1" transform="translate(1169.03 390.03)">NEW BRUNSWICK<tspan x="0" y="154.74">LIBRA</tspan><tspan class="cls-2" x="397.42" y="154.74">R</tspan><tspan class="cls-3" x="481.24" y="154.74">Y OF CRAFT &amp; DESIGN </tspan></text><path class="cls-4" d="M1179.22,628.44h35.59a42.71,42.71,0,0,1,10.18,1.23,26,26,0,0,1,9,4,20.65,20.65,0,0,1,8.83,17.73q0,7.74-4.38,12.77a24.43,24.43,0,0,1-11.48,7.22v.26a23.64,23.64,0,0,1,7.93,2.38,21,21,0,0,1,6.25,4.78,22.07,22.07,0,0,1,4.07,6.7,22.56,22.56,0,0,1,1.48,8.19,23.87,23.87,0,0,1-3,12.44,23.6,23.6,0,0,1-7.8,8,33.36,33.36,0,0,1-11.09,4.32,62.69,62.69,0,0,1-12.7,1.29h-32.88Zm16.24,37.14h14.83q8.13,0,12.19-3.16a10,10,0,0,0,4.06-8.32q0-5.93-4.19-8.83t-13.47-2.9h-13.42Zm0,40.23h15a60.77,60.77,0,0,0,6.64-.39,19.73,19.73,0,0,0,6.52-1.8,13,13,0,0,0,4.9-4.06,11.88,11.88,0,0,0,1.93-7.16q0-7.21-4.71-10.06t-14.63-2.84h-15.61Z"/><path class="cls-4" d="M1270.13,628.44h16.25v91.3h-16.25Z"/><path class="cls-4" d="M1314.1,628.44h35.59a42.79,42.79,0,0,1,10.19,1.23,25.94,25.94,0,0,1,9,4,20.65,20.65,0,0,1,8.83,17.73q0,7.74-4.38,12.77a24.43,24.43,0,0,1-11.48,7.22v.26a23.64,23.64,0,0,1,7.93,2.38,21.17,21.17,0,0,1,6.26,4.78,22.25,22.25,0,0,1,4.06,6.7,22.56,22.56,0,0,1,1.48,8.19,23.87,23.87,0,0,1-3,12.44,23.42,23.42,0,0,1-7.8,8,33.36,33.36,0,0,1-11.09,4.32,62.69,62.69,0,0,1-12.7,1.29H1314.1Zm16.25,37.14h14.83q8.11,0,12.18-3.16a10,10,0,0,0,4.06-8.32q0-5.93-4.19-8.83t-13.47-2.9h-13.41Zm0,40.23h15a61.06,61.06,0,0,0,6.64-.39,19.74,19.74,0,0,0,6.51-1.8,12.89,12.89,0,0,0,4.9-4.06,11.88,11.88,0,0,0,1.93-7.16q0-7.21-4.7-10.06T1346,679.5h-15.6Z"/><path class="cls-4" d="M1405.4,628.44h16.24V705h38.82v14.7H1405.4Z"/><path class="cls-4" d="M1479.67,628.44h16.25v91.3h-16.25Z"/><path class="cls-4" d="M1518.74,674.48a53.05,53.05,0,0,1,3.61-19.93,44.71,44.71,0,0,1,10-15.28,43.71,43.71,0,0,1,15.21-9.73,53.34,53.34,0,0,1,19.41-3.42,54.17,54.17,0,0,1,19.6,3.16,42.88,42.88,0,0,1,15.35,9.6A44.5,44.5,0,0,1,1612,654.1a52.5,52.5,0,0,1,3.61,19.86,50.77,50.77,0,0,1-3.61,19.47,44.63,44.63,0,0,1-10.06,15.09,46,46,0,0,1-15.35,9.86,54.22,54.22,0,0,1-19.6,3.68,53.34,53.34,0,0,1-19.41-3.42A43.55,43.55,0,0,1,1522.35,694,50.84,50.84,0,0,1,1518.74,674.48Zm17-1A39.33,39.33,0,0,0,1538,687a31.77,31.77,0,0,0,6.39,10.71,29.61,29.61,0,0,0,9.86,7.09,30.92,30.92,0,0,0,12.83,2.58,31.42,31.42,0,0,0,12.9-2.58,29.69,29.69,0,0,0,9.93-7.09,31.91,31.91,0,0,0,6.38-10.71,39.33,39.33,0,0,0,2.25-13.54,35.67,35.67,0,0,0-2.25-12.76,31.61,31.61,0,0,0-6.38-10.38,29.38,29.38,0,0,0-9.93-7,32.23,32.23,0,0,0-12.9-2.51,31.72,31.72,0,0,0-12.83,2.51,29.3,29.3,0,0,0-9.86,7,31.47,31.47,0,0,0-6.39,10.38A35.67,35.67,0,0,0,1535.77,673.44Z"/><path class="cls-4" d="M1657.49,643.14h-28v-14.7h72.21v14.7h-28v76.6h-16.25Z"/><path class="cls-4" d="M1720.55,628.44h16.25V664.8h42.68V628.44h16.25v91.3h-16.25V679.5H1736.8v40.24h-16.25Z"/><path class="cls-4" d="M1823.84,628.44h60.48v14.7h-44.23v22.44H1882v14.7h-41.91V705h46.55v14.7h-62.8Zm35.33-6.19h-12.12l-18.18-18.57h17.54Z"/><path class="cls-4" d="M2008.37,719.74h-53.13a57.79,57.79,0,0,1-19.79-3.29,46,46,0,0,1-15.74-9.41,43.47,43.47,0,0,1-10.44-15,49.85,49.85,0,0,1-3.81-19.93,44.53,44.53,0,0,1,14.19-33.07,47.71,47.71,0,0,1,15.28-9.54,51.77,51.77,0,0,1,37,0,47.71,47.71,0,0,1,15.28,9.54,44.48,44.48,0,0,1,14.18,33.07,42.09,42.09,0,0,1-1.74,12.71,37.42,37.42,0,0,1-4.57,9.67,33.6,33.6,0,0,1-6.26,7,54.13,54.13,0,0,1-6.64,4.77v.25h26.18Zm-55.32-78.92a31,31,0,0,0-12.19,2.38,28.9,28.9,0,0,0-9.67,6.65,31,31,0,0,0-6.38,10,33.71,33.71,0,0,0-2.32,12.64,35.56,35.56,0,0,0,2.32,13,30.75,30.75,0,0,0,6.44,10.32,29.92,29.92,0,0,0,9.74,6.77,30.48,30.48,0,0,0,12.32,2.45,31.45,31.45,0,0,0,12.44-2.45,29.59,29.59,0,0,0,9.86-6.77,30.93,30.93,0,0,0,6.45-10.32,35.56,35.56,0,0,0,2.32-13,33.71,33.71,0,0,0-2.32-12.64,30.64,30.64,0,0,0-6.45-10,29.29,29.29,0,0,0-9.86-6.65A33,33,0,0,0,1953.05,640.82Z"/><path class="cls-4" d="M2101.08,686.21a37.54,37.54,0,0,1-2.83,14.89,33.67,33.67,0,0,1-7.74,11.29,34,34,0,0,1-11.61,7.15,43.38,43.38,0,0,1-29.14,0,34.7,34.7,0,0,1-11.67-7.15,32.29,32.29,0,0,1-7.74-11.29,38.25,38.25,0,0,1-2.77-14.89V628.44h16.25v57.25a25.89,25.89,0,0,0,1,7,19.77,19.77,0,0,0,3.42,6.77,18.21,18.21,0,0,0,6.32,5.1,24.81,24.81,0,0,0,19.47,0,18.4,18.4,0,0,0,6.32-5.1,19.74,19.74,0,0,0,3.41-6.77,25.89,25.89,0,0,0,1-7V628.44h16.25Z"/><path class="cls-4" d="M2128.8,628.44h60.48v14.7h-44.23v22.44H2187v14.7h-41.91V705h46.55v14.7h-62.8Z"/><path class="cls-4" d="M2261.24,628.44h36a55,55,0,0,1,17.41,2.77,42.37,42.37,0,0,1,14.83,8.45,41.22,41.22,0,0,1,10.32,14.25q3.87,8.58,3.86,20.18t-4.44,20.31a43.56,43.56,0,0,1-11.48,14.18,48.88,48.88,0,0,1-15.6,8.38,54.51,54.51,0,0,1-16.83,2.78h-34ZM2289.6,705A57.52,57.52,0,0,0,2304,703.3a34.13,34.13,0,0,0,11.8-5.42,25.7,25.7,0,0,0,7.93-9.54,31.81,31.81,0,0,0,2.9-14.25A35.47,35.47,0,0,0,2324,659.9a24.69,24.69,0,0,0-7.15-9.6,29.91,29.91,0,0,0-10.83-5.42,51.16,51.16,0,0,0-13.74-1.74h-14.83V705Z"/><path class="cls-4" d="M2366.84,628.44h60.48v14.7h-44.23v22.44H2425v14.7h-41.91V705h46.55v14.7h-62.8Z"/><path class="cls-4" d="M2498.12,648a15.11,15.11,0,0,0-6.9-5.48,24.19,24.19,0,0,0-9.1-1.74,23.09,23.09,0,0,0-5.48.64,15.05,15.05,0,0,0-4.77,2.07,10.38,10.38,0,0,0-4.7,9,8.38,8.38,0,0,0,3.22,7.1,31.58,31.58,0,0,0,8,4.25c3.17,1.21,6.66,2.37,10.44,3.48a42.71,42.71,0,0,1,10.45,4.65,25.81,25.81,0,0,1,8,7.86q3.22,4.9,3.22,13a28.73,28.73,0,0,1-2.7,12.83,26.29,26.29,0,0,1-7.29,9.09,31.37,31.37,0,0,1-10.64,5.41,44.27,44.27,0,0,1-12.76,1.81,47.91,47.91,0,0,1-16.38-2.84,31.49,31.49,0,0,1-13.54-9.54l12.25-11.86a20.45,20.45,0,0,0,7.8,7,21.89,21.89,0,0,0,10.25,2.52,21.42,21.42,0,0,0,5.68-.78,17.32,17.32,0,0,0,5.15-2.32,12,12,0,0,0,3.74-3.93,10.48,10.48,0,0,0,1.42-5.48q0-5-3.22-7.74a28.75,28.75,0,0,0-8-4.58q-4.77-1.86-10.44-3.54a43.75,43.75,0,0,1-10.45-4.58,25.3,25.3,0,0,1-8-7.74q-3.23-4.83-3.23-13a24.56,24.56,0,0,1,2.91-12.25,26.64,26.64,0,0,1,7.6-8.57,33.27,33.27,0,0,1,10.77-5.1,46.54,46.54,0,0,1,12.38-1.67,45.13,45.13,0,0,1,14,2.19,32.4,32.4,0,0,1,12.19,7.22Z"/><path class="cls-4" d="M2581.42,628.44h24.75l24.37,64,24.63-64h24.51v91.3H2664.2V643.91h-.26l-27.72,75.83h-11.35l-27.72-75.83h-.26v75.83h-15.47Z"/><path class="cls-4" d="M2708.17,628.44h60.48v14.7h-44.23v22.44h41.91v14.7h-41.91V705H2771v14.7h-62.8Zm36-24.76h17.54l-18.18,18.57h-12.13Z"/><path class="cls-4" d="M2813.4,643.14h-28v-14.7h72.22v14.7h-28v76.6H2813.4Z"/><path class="cls-4" d="M2876.06,628.44h16.25v91.3h-16.25Z"/><path class="cls-4" d="M2920,628.44h60.48v14.7h-44.23v22.44h41.9v14.7h-41.9V705h46.55v14.7H2920Z"/><path class="cls-4" d="M3006.56,628.44h31.73a64.44,64.44,0,0,1,12.7,1.23,32.31,32.31,0,0,1,10.89,4.19,21.87,21.87,0,0,1,7.61,8q2.84,5,2.84,12.77,0,9.93-5.48,16.63t-15.67,8.13l24.24,40.36h-19.6l-21.15-38.69h-11.86v38.69h-16.25Zm28.89,38.68c2.32,0,4.64-.1,7-.32a21.39,21.39,0,0,0,6.38-1.54,10.92,10.92,0,0,0,4.71-3.74,11.92,11.92,0,0,0,1.81-7,11.18,11.18,0,0,0-1.68-6.45,10.42,10.42,0,0,0-4.38-3.67,20.23,20.23,0,0,0-6-1.62,56.33,56.33,0,0,0-6.38-.38h-14.06v24.75Z"/><path class="cls-4" d="M3140.29,648a15.11,15.11,0,0,0-6.9-5.48,24.19,24.19,0,0,0-9.1-1.74,23.09,23.09,0,0,0-5.48.64,15.05,15.05,0,0,0-4.77,2.07,10.38,10.38,0,0,0-4.7,9,8.38,8.38,0,0,0,3.22,7.1,31.58,31.58,0,0,0,8,4.25c3.17,1.21,6.66,2.37,10.44,3.48a42.71,42.71,0,0,1,10.45,4.65,25.91,25.91,0,0,1,8,7.86q3.22,4.9,3.22,13a28.73,28.73,0,0,1-2.7,12.83,26.29,26.29,0,0,1-7.29,9.09,31.37,31.37,0,0,1-10.64,5.41,44.27,44.27,0,0,1-12.76,1.81,47.91,47.91,0,0,1-16.38-2.84,31.49,31.49,0,0,1-13.54-9.54l12.25-11.86a20.45,20.45,0,0,0,7.8,7,21.86,21.86,0,0,0,10.25,2.52,21.42,21.42,0,0,0,5.68-.78,17.32,17.32,0,0,0,5.15-2.32,12,12,0,0,0,3.74-3.93,10.48,10.48,0,0,0,1.42-5.48q0-5-3.22-7.74a28.75,28.75,0,0,0-8-4.58q-4.77-1.86-10.44-3.54a43.75,43.75,0,0,1-10.45-4.58,25.3,25.3,0,0,1-8-7.74q-3.23-4.83-3.23-13a24.56,24.56,0,0,1,2.91-12.25,26.64,26.64,0,0,1,7.6-8.57,33.27,33.27,0,0,1,10.77-5.1,46.54,46.54,0,0,1,12.38-1.67,45.13,45.13,0,0,1,14,2.19,32.4,32.4,0,0,1,12.19,7.22Z"/><path class="cls-4" d="M1179.22,783.18h36A55.32,55.32,0,0,1,1232.6,786a42.37,42.37,0,0,1,14.83,8.45,41.22,41.22,0,0,1,10.32,14.25,48.7,48.7,0,0,1,3.87,20.18q0,11.73-4.45,20.31a43.43,43.43,0,0,1-11.48,14.18,49.1,49.1,0,0,1-15.6,8.39,54.49,54.49,0,0,1-16.83,2.77h-34Zm28.37,76.6A57.5,57.5,0,0,0,1222,858a34.13,34.13,0,0,0,11.8-5.42,25.61,25.61,0,0,0,7.93-9.54,31.81,31.81,0,0,0,2.91-14.25,35.56,35.56,0,0,0-2.58-14.18,24.67,24.67,0,0,0-7.16-9.61,29.83,29.83,0,0,0-10.83-5.42,51.16,51.16,0,0,0-13.74-1.74h-14.83v61.9Z"/><path class="cls-4" d="M1290.37,783.18h15.73l-11,34h-13.79Z"/><path class="cls-4" d="M1360.26,783.18h14.06l39.33,91.3h-18.57l-8.51-20.89H1347l-8.25,20.89h-18.19Zm20.63,56.48-14.05-37.14-14.32,37.14Z"/><path class="cls-4" d="M1431.57,783.18h31.72a64.29,64.29,0,0,1,12.7,1.23,32.28,32.28,0,0,1,10.9,4.19,22,22,0,0,1,7.61,8q2.84,5,2.83,12.77,0,9.93-5.48,16.63t-15.66,8.13l24.24,40.36h-19.6l-21.15-38.69h-11.86v38.69h-16.25Zm28.89,38.69q3.48,0,7-.33a21.39,21.39,0,0,0,6.38-1.54,11,11,0,0,0,4.71-3.74,11.92,11.92,0,0,0,1.8-7,11.31,11.31,0,0,0-1.67-6.45,10.38,10.38,0,0,0-4.39-3.67,20.08,20.08,0,0,0-6-1.62,56.51,56.51,0,0,0-6.39-.38h-14v24.76Z"/><path class="cls-4" d="M1536.92,797.88h-28v-14.7h72.21v14.7h-28v76.6h-16.25Z"/><path class="cls-4" d="M1645.88,783.18h60.48v14.7h-44.23v22.44H1704V835h-41.91v24.76h46.55v14.7h-62.8Z"/><path class="cls-4" d="M1751.11,797.88h-28v-14.7h72.22v14.7h-28v76.6h-16.24Z"/><path class="cls-4" d="M1860.07,783.18h36a55.38,55.38,0,0,1,17.42,2.77,42.42,42.42,0,0,1,14.82,8.45,41.22,41.22,0,0,1,10.32,14.25,48.7,48.7,0,0,1,3.87,20.18q0,11.73-4.45,20.31a43.43,43.43,0,0,1-11.48,14.18,48.89,48.89,0,0,1-15.6,8.39,54.49,54.49,0,0,1-16.83,2.77h-34Zm28.37,76.6a57.64,57.64,0,0,0,14.38-1.74,34.3,34.3,0,0,0,11.8-5.42,25.68,25.68,0,0,0,7.92-9.54,31.81,31.81,0,0,0,2.91-14.25,35.39,35.39,0,0,0-2.58-14.18,24.67,24.67,0,0,0-7.16-9.61,29.83,29.83,0,0,0-10.83-5.42,51.14,51.14,0,0,0-13.73-1.74h-14.83v61.9Z"/><path class="cls-4" d="M1965.68,783.18h60.48v14.7h-44.24v22.44h41.91V835h-41.91v24.76h46.56v14.7h-62.8Z"/><path class="cls-4" d="M2098.11,783.18h36a55.32,55.32,0,0,1,17.41,2.77,42.37,42.37,0,0,1,14.83,8.45,41.22,41.22,0,0,1,10.32,14.25,48.7,48.7,0,0,1,3.87,20.18q0,11.73-4.45,20.31a43.43,43.43,0,0,1-11.48,14.18,49.1,49.1,0,0,1-15.6,8.39,54.49,54.49,0,0,1-16.83,2.77h-34Zm28.37,76.6a57.5,57.5,0,0,0,14.37-1.74,34.13,34.13,0,0,0,11.8-5.42,25.61,25.61,0,0,0,7.93-9.54,31.81,31.81,0,0,0,2.91-14.25,35.56,35.56,0,0,0-2.58-14.18,24.67,24.67,0,0,0-7.16-9.61,29.83,29.83,0,0,0-10.83-5.42,51.16,51.16,0,0,0-13.74-1.74h-14.83v61.9Z"/><path class="cls-4" d="M2203.72,783.18h60.47v14.7H2220v22.44h41.91V835H2220v24.76h46.56v14.7h-62.8Z"/><path class="cls-4" d="M2335,802.78a15,15,0,0,0-6.9-5.48,24.1,24.1,0,0,0-9.09-1.74,23,23,0,0,0-5.48.65,14.72,14.72,0,0,0-4.77,2.06,10.84,10.84,0,0,0-3.42,3.67,10.62,10.62,0,0,0-1.29,5.35,8.37,8.37,0,0,0,3.22,7.1,31.75,31.75,0,0,0,8,4.25q4.77,1.82,10.44,3.48a42.37,42.37,0,0,1,10.45,4.65,25.92,25.92,0,0,1,8,7.86q3.22,4.9,3.23,13a28.73,28.73,0,0,1-2.71,12.83,26.29,26.29,0,0,1-7.29,9.09,31.41,31.41,0,0,1-10.63,5.41A44.34,44.34,0,0,1,2314,876.8a47.91,47.91,0,0,1-16.38-2.84,31.55,31.55,0,0,1-13.54-9.54l12.25-11.86a20.45,20.45,0,0,0,7.8,7,21.93,21.93,0,0,0,10.26,2.52,21.69,21.69,0,0,0,5.67-.77,17.52,17.52,0,0,0,5.16-2.33,12.11,12.11,0,0,0,3.74-3.93,10.58,10.58,0,0,0,1.42-5.48,9.56,9.56,0,0,0-3.23-7.74,28.43,28.43,0,0,0-8-4.57q-4.77-1.87-10.45-3.55a43.85,43.85,0,0,1-10.44-4.58,25.41,25.41,0,0,1-8-7.73q-3.22-4.84-3.22-13a24.61,24.61,0,0,1,2.9-12.25,26.49,26.49,0,0,1,7.61-8.58,33,33,0,0,1,10.76-5.09,46.15,46.15,0,0,1,12.38-1.68,45.23,45.23,0,0,1,14,2.19,32.57,32.57,0,0,1,12.18,7.22Z"/><path class="cls-4" d="M2371.61,783.18h16.25v91.3h-16.25Z"/><path class="cls-4" d="M2496.69,867.77q-16.89,9-37.78,9a53.34,53.34,0,0,1-19.41-3.42,43.55,43.55,0,0,1-25.21-24.69,50.65,50.65,0,0,1-3.61-19.47,52.86,52.86,0,0,1,3.61-19.93,44.81,44.81,0,0,1,10-15.28,43.77,43.77,0,0,1,15.21-9.73,53.34,53.34,0,0,1,19.41-3.42,74.05,74.05,0,0,1,19.6,2.51,40.46,40.46,0,0,1,16.38,9l-12,12.12a30,30,0,0,0-10.64-6.58,37.59,37.59,0,0,0-13.21-2.32,31.72,31.72,0,0,0-12.83,2.51,29.34,29.34,0,0,0-9.87,7,31.55,31.55,0,0,0-6.38,10.38,35.47,35.47,0,0,0-2.26,12.77,39.18,39.18,0,0,0,2.26,13.54,31.8,31.8,0,0,0,6.38,10.7,29.65,29.65,0,0,0,9.87,7.09A30.92,30.92,0,0,0,2459,862.1a56.6,56.6,0,0,0,11.67-1.16,33.06,33.06,0,0,0,9.73-3.61V835.79h-18.69v-14.7h34.94Z"/><path class="cls-4" d="M2523.64,783.18h21.54L2589.41,851h.26V783.18h16.24v91.3h-20.63l-45.13-70h-.26v70h-16.25Z"/><path class="cls-4" d="M2679.93,783.18h36a55.3,55.3,0,0,1,17.4,2.77,42.37,42.37,0,0,1,14.83,8.45,41.22,41.22,0,0,1,10.32,14.25,48.7,48.7,0,0,1,3.87,20.18q0,11.73-4.45,20.31a43.43,43.43,0,0,1-11.48,14.18,48.89,48.89,0,0,1-15.6,8.39,54.49,54.49,0,0,1-16.83,2.77h-34Zm28.37,76.6a57.64,57.64,0,0,0,14.38-1.74,34.16,34.16,0,0,0,11.79-5.42,25.73,25.73,0,0,0,7.94-9.54,32,32,0,0,0,2.9-14.25,35.39,35.39,0,0,0-2.58-14.18,24.67,24.67,0,0,0-7.16-9.61,29.83,29.83,0,0,0-10.83-5.42,51.14,51.14,0,0,0-13.73-1.74h-14.83v61.9Z"/><path class="cls-4" d="M2858.65,841a37.63,37.63,0,0,1-2.83,14.9,33.73,33.73,0,0,1-7.74,11.28,34.22,34.22,0,0,1-11.61,7.16,43.54,43.54,0,0,1-29.14,0,34.88,34.88,0,0,1-11.67-7.16,32.34,32.34,0,0,1-7.74-11.28,38.34,38.34,0,0,1-2.77-14.9V783.18h16.25v57.26a25.88,25.88,0,0,0,1,7,19.59,19.59,0,0,0,3.42,6.77,18.1,18.1,0,0,0,6.32,5.1,24.69,24.69,0,0,0,19.47,0,18.28,18.28,0,0,0,6.32-5.1,19.92,19.92,0,0,0,3.41-6.77,25.88,25.88,0,0,0,1-7V783.18h16.25Z"/><path class="cls-4" d="M1179.22,937.92h21.53l44.23,67.83h.26V937.92h16.25v91.3h-20.63l-45.14-70h-.26v70h-16.24Z"/><path class="cls-4" d="M1284.7,984a52.77,52.77,0,0,1,3.61-19.92,44.73,44.73,0,0,1,10-15.29,43.9,43.9,0,0,1,15.22-9.73,53.34,53.34,0,0,1,19.41-3.42,54.46,54.46,0,0,1,19.6,3.16,42.86,42.86,0,0,1,15.34,9.61,44.36,44.36,0,0,1,10.06,15.21,52.38,52.38,0,0,1,3.61,19.86,50.58,50.58,0,0,1-3.61,19.47,44.63,44.63,0,0,1-10.06,15.09,46.1,46.1,0,0,1-15.34,9.87,54.51,54.51,0,0,1-19.6,3.67,53.34,53.34,0,0,1-19.41-3.42,43.48,43.48,0,0,1-25.21-24.69A50.62,50.62,0,0,1,1284.7,984Zm17-1a39.14,39.14,0,0,0,2.26,13.54,31.8,31.8,0,0,0,6.38,10.7,29.72,29.72,0,0,0,9.86,7.09,31,31,0,0,0,12.83,2.58,31.42,31.42,0,0,0,12.9-2.58,29.5,29.5,0,0,0,9.93-7.09,31.8,31.8,0,0,0,6.38-10.7,39.14,39.14,0,0,0,2.26-13.54,35.51,35.51,0,0,0-2.26-12.77,31.65,31.65,0,0,0-6.38-10.38,29,29,0,0,0-9.93-7,32.06,32.06,0,0,0-12.9-2.52,31.62,31.62,0,0,0-12.83,2.52,29.23,29.23,0,0,0-9.86,7,31.65,31.65,0,0,0-6.38,10.38A35.51,35.51,0,0,0,1301.72,982.93Z"/><path class="cls-4" d="M1477.87,995.69a37.59,37.59,0,0,1-2.84,14.9,33.25,33.25,0,0,1-7.74,11.28,34.18,34.18,0,0,1-11.6,7.16,43.57,43.57,0,0,1-29.15,0,34.88,34.88,0,0,1-11.67-7.16,32,32,0,0,1-7.73-11.28,38.3,38.3,0,0,1-2.78-14.9V937.92h16.25v57.26a26,26,0,0,0,1,7,20,20,0,0,0,3.42,6.77,18.28,18.28,0,0,0,6.32,5.09,24.69,24.69,0,0,0,19.47,0,18.28,18.28,0,0,0,6.32-5.09,20,20,0,0,0,3.42-6.77,26.4,26.4,0,0,0,1-7V937.92h16.25Z"/><path class="cls-4" d="M1495,937.92h18.7l24.89,69,25.66-69h17.54l-36.88,91.3h-14.06Z"/><path class="cls-4" d="M1599.33,937.92h60.48v14.7h-44.23v22.44h41.91v14.7h-41.91v24.76h46.55v14.7h-62.8Z"/><path class="cls-4" d="M1715.39,937.92h14.06l39.33,91.3h-18.57l-8.51-20.89h-39.59l-8.26,20.89h-18.18ZM1736,994.4l-14-37.13-14.32,37.13Z"/><path class="cls-4" d="M1859.81,995.69a37.59,37.59,0,0,1-2.83,14.9,33.53,33.53,0,0,1-7.74,11.28,34.22,34.22,0,0,1-11.61,7.16,43.54,43.54,0,0,1-29.14,0,34.88,34.88,0,0,1-11.67-7.16,32.16,32.16,0,0,1-7.74-11.28,38.3,38.3,0,0,1-2.77-14.9V937.92h16.25v57.26a26,26,0,0,0,1,7A20,20,0,0,0,1807,1009a18.19,18.19,0,0,0,6.32,5.09,24.69,24.69,0,0,0,19.47,0,18.38,18.38,0,0,0,6.32-5.09,19.92,19.92,0,0,0,3.41-6.77,26,26,0,0,0,1-7V937.92h16.25Z"/><path class="cls-4" d="M1913.58,1004.07h-31.85V990.92h31.85Z"/><path class="cls-4" d="M1935.89,937.92h35.59a42.73,42.73,0,0,1,10.19,1.23,26.14,26.14,0,0,1,9,4,20.62,20.62,0,0,1,8.83,17.73,18.73,18.73,0,0,1-4.38,12.76,24.3,24.3,0,0,1-11.48,7.22v.26a23.65,23.65,0,0,1,7.93,2.39,20.85,20.85,0,0,1,6.26,4.77,22,22,0,0,1,4.06,6.7,22.35,22.35,0,0,1,1.48,8.19,24,24,0,0,1-3,12.45,23.51,23.51,0,0,1-7.81,8,33.36,33.36,0,0,1-11.09,4.32,62.69,62.69,0,0,1-12.7,1.29h-32.88Zm16.25,37.14H1967c5.41,0,9.48-1,12.18-3.16a10,10,0,0,0,4.07-8.32q0-5.93-4.2-8.83t-13.47-2.9h-13.41Zm0,40.23h15a63.55,63.55,0,0,0,6.64-.38,20,20,0,0,0,6.51-1.81,12.8,12.8,0,0,0,4.9-4.06,11.88,11.88,0,0,0,1.93-7.16q0-7.21-4.7-10.06T1967.74,989h-15.6Z"/><path class="cls-4" d="M2027.19,937.92h31.72a64.36,64.36,0,0,1,12.7,1.23,32.58,32.58,0,0,1,10.9,4.19,22,22,0,0,1,7.61,8q2.82,5,2.83,12.77,0,9.93-5.48,16.63t-15.67,8.13l24.25,40.36h-19.6l-21.15-38.69h-11.87v38.69h-16.24Zm28.88,38.69q3.48,0,7-.32a21.47,21.47,0,0,0,6.38-1.55,10.88,10.88,0,0,0,4.7-3.74,11.85,11.85,0,0,0,1.81-7,11.23,11.23,0,0,0-1.68-6.45,10.37,10.37,0,0,0-4.38-3.67,19.85,19.85,0,0,0-6-1.61,54.16,54.16,0,0,0-6.38-.39h-14.06v24.76Z"/><path class="cls-4" d="M2189.28,995.69a37.59,37.59,0,0,1-2.84,14.9,33.25,33.25,0,0,1-7.74,11.28,34.08,34.08,0,0,1-11.6,7.16,43.54,43.54,0,0,1-29.14,0,34.69,34.69,0,0,1-11.67-7.16,32,32,0,0,1-7.74-11.28,38.3,38.3,0,0,1-2.77-14.9V937.92H2132v57.26a26,26,0,0,0,1,7,19.74,19.74,0,0,0,3.41,6.77,18.28,18.28,0,0,0,6.32,5.09,24.69,24.69,0,0,0,19.47,0,18.28,18.28,0,0,0,6.32-5.09,20,20,0,0,0,3.42-6.77,26,26,0,0,0,1-7V937.92h16.25Z"/><path class="cls-4" d="M2217,937.92h21.53l44.23,67.83h.26V937.92h16.25v91.3h-20.63l-45.13-70h-.26v70H2217Z"/><path class="cls-4" d="M2372.13,957.52a15,15,0,0,0-6.9-5.48,24.1,24.1,0,0,0-9.09-1.74,23,23,0,0,0-5.48.65,14.77,14.77,0,0,0-4.78,2.06,10.85,10.85,0,0,0-3.41,3.68,10.57,10.57,0,0,0-1.29,5.35,8.36,8.36,0,0,0,3.22,7.09,31.75,31.75,0,0,0,8,4.25q4.77,1.82,10.44,3.49a42.14,42.14,0,0,1,10.45,4.64,25.92,25.92,0,0,1,8,7.86q3.22,4.9,3.23,13a28.7,28.7,0,0,1-2.71,12.83,26.29,26.29,0,0,1-7.29,9.09,31.57,31.57,0,0,1-10.64,5.42,44.57,44.57,0,0,1-12.76,1.8,47.91,47.91,0,0,1-16.38-2.84,31.55,31.55,0,0,1-13.54-9.54l12.25-11.86a20.56,20.56,0,0,0,7.8,7,22,22,0,0,0,10.25,2.51,21.76,21.76,0,0,0,5.68-.77,17.76,17.76,0,0,0,5.16-2.32,12.35,12.35,0,0,0,3.74-3.94,10.55,10.55,0,0,0,1.41-5.48q0-5-3.22-7.73a28.44,28.44,0,0,0-8-4.58q-4.79-1.87-10.45-3.55a43.28,43.28,0,0,1-10.44-4.58,25.3,25.3,0,0,1-8-7.73q-3.23-4.85-3.22-13a24.53,24.53,0,0,1,2.9-12.25,26.49,26.49,0,0,1,7.61-8.58,33.11,33.11,0,0,1,10.76-5.09,46.15,46.15,0,0,1,12.38-1.68,45.13,45.13,0,0,1,14,2.19A32.43,32.43,0,0,1,2384,945Z"/><path class="cls-4" d="M2399,937.92h17.79l17.15,65.77h.26l20.5-65.77h16l20.12,65.77h.26l17.92-65.77h16.51l-26.57,91.3h-15.47l-21.15-69.5H2462l-21.14,69.5h-15Z"/><path class="cls-4" d="M2543,937.92h16.25v91.3H2543Z"/><path class="cls-4" d="M2649.63,959.33q-5-5.42-9.74-7.22a26.18,26.18,0,0,0-9.48-1.81,31.59,31.59,0,0,0-12.83,2.52,29.23,29.23,0,0,0-9.86,7,31.84,31.84,0,0,0-6.39,10.38,35.72,35.72,0,0,0-2.25,12.77,39.37,39.37,0,0,0,2.25,13.54,32,32,0,0,0,6.39,10.7,29.72,29.72,0,0,0,9.86,7.09,31,31,0,0,0,12.83,2.58,23.59,23.59,0,0,0,10.77-2.64,29.4,29.4,0,0,0,9.74-8.45l13.41,9.54a36.54,36.54,0,0,1-15.09,12.38,47,47,0,0,1-19,3.87,53.25,53.25,0,0,1-19.4-3.42,43.48,43.48,0,0,1-25.21-24.69,50.62,50.62,0,0,1-3.61-19.47,52.77,52.77,0,0,1,3.61-19.92,44.73,44.73,0,0,1,10-15.29,43.9,43.9,0,0,1,15.22-9.73,53.25,53.25,0,0,1,19.4-3.42,44.58,44.58,0,0,1,17.22,3.29A40,40,0,0,1,2662.26,950Z"/><path class="cls-4" d="M2683,937.92h16.24v38.69h.78l37.78-38.69h21.92l-42.68,42.17,45.52,49.13h-22.83l-39.58-44.87h-.91v44.87H2683Z"/></g><g id="Layer_5" data-name="Layer 5"><path class="cls-4" d="M1011.27,551.35,633.89,62.41l-.73-.94L623,59.91,99.06,426,96,433.22l62.89,416.65.06.35,1.71,3.76,326.86,382.09.4,1.74,12.16,1,.29.5.71-.42,1.06.09.38-1L996.08,944.57l.58-.35,3.65-6.18,12.52-381.88ZM513.46,1211.21,773.54,575.84l221.52-10.36L983.05,932ZM756.93,570.36l-259,632.8L341.22,513.77l111.59-168ZM175.73,844.8,115.49,445.7l209,73,154.72,680.81ZM123.67,430.07l470.57-328.8L328.36,501.58Zm646.6,128.45L462.47,331.21l165-248.49L986.94,548.39Z"/></g></svg>